<svg viewBox="0 0 260.46 299.99" xmlns="http://www.w3.org/2000/svg">
  <defs>
    <style>.a {
      fill: url(#a);
    }</style>
    <linearGradient gradientUnits="userSpaceOnUse" id="a" x1="961.3" x2="960.5" y1="322.48" y2="650.88">
      <stop offset="0" stop-color="#f59a40"/>
      <stop offset="1" stop-color="#e84e3c"/>
    </linearGradient>
  </defs>
  <path class="a"
        d="M1044.22,431.58c-4.12-4.06-9.12-3.81-14.14-4.08a117.84,117.84,0,0,0-31.59,2.24c-27,5.85-46.28,21.28-57.62,46.56a117.36,117.36,0,0,0-10,49.15c0,9-.75,18,1,27.82,1.1-10.88,1.87-20.91,3.91-30.79a164.75,164.75,0,0,1,8.62-29.06A132.75,132.75,0,0,1,959,466.49a80.93,80.93,0,0,1,22.18-21.77c-4.28,30.27-1.15,58.28,14,84.19,5.12,8.77,11.62,16.41,18.73,23.64-16.33-23.25-24.71-48.54-20.6-77.18,7.62,18.95,15.84,37.52,28.87,53.47,4.32,5.29,8.91,10.41,14.77,14.29,1.81-.55,2.08-2.35,2.72-3.73a396.35,396.35,0,0,0,23.91-65.76,386.33,386.33,0,0,0,9.27-45.86,216.8,216.8,0,0,0,1.87-23.48c.06-2.59-.82-4.09-3.31-5.12-16.87-6.94-33.67-14-50.5-21-18.91-7.88-37.85-15.7-56.74-23.62a7.21,7.21,0,0,0-6.06,0Q912,373.79,865.74,392.94c-4.73,2-9.4,4.11-14.22,5.82-3,1.05-4.11,2.72-4,5.82A301.63,301.63,0,0,0,853,451c2.13,10.9,4.51,21.76,6.8,32.64.13.59.39,1.16.92,2.67,11.72-18.94,25-35.73,43.18-48a200.32,200.32,0,0,0-14.26,21.78c-4.19,7.69-7.86,15.62-11.26,23.68a265.56,265.56,0,0,0-8.69,25.14c-2.54,8.28-4.6,16.71-7.12,26-3.44-5.89-5.2-11.47-7.5-16.77a291.09,291.09,0,0,1-20.6-72.24c-1.42-9.24-2.19-18.56-2.86-27.9-.59-8.24-.45-16.46-.66-24.7-.07-2.8,1.05-4.31,3.61-5.36q49.35-20.39,98.66-40.88c8.19-3.4,16.38-6.81,24.52-10.31a8.14,8.14,0,0,1,6.84,0Q1021.23,360.39,1078,384c3.35,1.39,6.63,3,10,4.14,2.61.89,3.32,2.51,3.35,5.08a375.2,375.2,0,0,1-2.06,39.22,290.5,290.5,0,0,1-10.76,54.3A269.72,269.72,0,0,1,1007,603.64a205.42,205.42,0,0,1-42,31.13,7.18,7.18,0,0,1-7.66.07,189.77,189.77,0,0,1-33.44-23.32,251,251,0,0,1-39.24-42.1c-2.22-3-4.2-6.22-6.54-9.13-2.73-3.4-2.49-7.29-2.08-11.11,3.19-30,12.27-58.32,24.33-85.77a155.77,155.77,0,0,1,22.53-37c12.87-15.52,28.67-26.16,49.35-27.13a57.24,57.24,0,0,1,30.93,7.56,13.09,13.09,0,0,0,8.95,1.57,46.57,46.57,0,0,1,21.46,1.76c8.12,2.53,13.2,11.54,11.58,20C1045.12,430.48,1044.79,430.76,1044.22,431.58Z"
        transform="translate(-830.9 -335.92)"/>
</svg>
